<svg width="16" height="15" viewBox="0 0 16 15" fill="none" xmlns="http://www.w3.org/2000/svg">
<path fill-rule="evenodd" clip-rule="evenodd" d="M5.877 8.75002H14.02C14.3292 8.75182 14.5988 8.53993 14.67 8.23902L15.983 2.55002C16.0259 2.35403 15.9772 2.14915 15.8507 1.99343C15.7242 1.83771 15.5336 1.74811 15.333 1.75002H4.422L4.168 0.525019C4.10216 0.217442 3.82954 -0.00173785 3.515 1.94928e-05H0.667C0.301771 -0.00275402 0.0032998 0.290794 0 0.65602V1.09402C0.0032998 1.45924 0.301771 1.75279 0.667 1.75002H2.608L4.559 11.141C4.0517 11.4245 3.74961 11.9717 3.78 12.552C3.83157 13.3887 4.53664 14.0341 5.37458 14.0117C6.21252 13.9894 6.88214 13.3072 6.889 12.469C6.88899 12.0559 6.7203 11.6608 6.422 11.375H12.245C11.9358 11.6707 11.7662 12.0834 11.778 12.511C11.8105 13.3362 12.4842 13.9911 13.31 14C14.0358 14.0259 14.6795 13.5372 14.8498 12.8312C15.0201 12.1252 14.6698 11.3968 14.012 11.089L14.165 10.425C14.2079 10.229 14.1592 10.0241 14.0327 9.86843C13.9062 9.71271 13.7156 9.62311 13.515 9.62502H6.059L5.877 8.75002ZM10 4.59402H11.333C11.5762 4.59236 11.7748 4.78785 11.777 5.03102V5.46902C11.7748 5.71219 11.5762 5.90768 11.333 5.90602H10V7.00002C9.99894 7.11698 9.95147 7.22873 9.86801 7.31069C9.78456 7.39264 9.67196 7.43809 9.555 7.43702H9.111C8.86783 7.43868 8.6692 7.24319 8.667 7.00002V5.90702H7.333C7.21604 5.90782 7.10355 5.86212 7.02028 5.77998C6.93702 5.69784 6.88979 5.58598 6.889 5.46902V5.03102C6.8912 4.78785 7.08983 4.59236 7.333 4.59402H8.667V3.50002C8.66779 3.38306 8.71502 3.2712 8.79828 3.18906C8.88155 3.10692 8.99404 3.06122 9.111 3.06202H9.556C9.67296 3.06122 9.78545 3.10692 9.86872 3.18906C9.95198 3.2712 9.99921 3.38306 10 3.50002V4.59402Z" fill="white"/>
</svg>
