<svg width="19" height="19" viewBox="0 0 19 19" fill="none" xmlns="http://www.w3.org/2000/svg">
<path fill-rule="evenodd" clip-rule="evenodd" d="M16.014 9.62371C16.023 9.92712 16.0076 10.2308 15.968 10.5317L18.011 12.0297C18.1561 12.1906 18.1926 12.422 18.104 12.6197L16.247 15.7507C16.1362 15.9461 15.8948 16.025 15.69 15.9327L13.369 15.0247C12.88 15.3875 12.3504 15.6922 11.791 15.9327L11.419 18.3327C11.3596 18.5417 11.1721 18.6883 10.955 18.6957H7.23801C7.01462 18.7068 6.81697 18.5522 6.77401 18.3327L6.40301 15.9327C5.83844 15.7027 5.30762 15.3972 4.82501 15.0247L2.51301 15.9387C2.30783 16.0229 2.07188 15.9458 1.95601 15.7567L0.0990058 12.6257C0.0316686 12.5356 0.00356718 12.4222 0.0210778 12.3111C0.0385884 12.2 0.100226 12.1007 0.192006 12.0357L2.14101 10.5357C2.14101 10.3767 2.12951 10.2292 2.11801 10.0817C2.10651 9.93421 2.09501 9.78671 2.09501 9.62771C2.09501 9.46871 2.10651 9.32121 2.11801 9.17371C2.12951 9.02621 2.14101 8.87871 2.14101 8.71971L0.141006 7.21971C-0.00386475 7.0587 -0.0403126 6.82748 0.0480058 6.62971L1.90501 3.49871C2.01583 3.30333 2.2572 3.22447 2.46201 3.31671L4.78301 4.22471C5.27206 3.86194 5.80161 3.55723 6.36101 3.31671L6.73201 0.916711C6.7914 0.707766 6.97891 0.561073 7.19601 0.553711H10.909C11.1261 0.561073 11.3136 0.707766 11.373 0.916711L11.698 3.31671C12.2626 3.54678 12.7934 3.85222 13.276 4.22471L15.597 3.31671C15.8022 3.23251 16.0381 3.30961 16.154 3.49871L18.01 6.62571C18.0773 6.71578 18.1054 6.82924 18.0879 6.94032C18.0704 7.05141 18.0088 7.15072 17.917 7.21571L15.968 8.71571C15.968 8.87471 15.9795 9.02221 15.991 9.16971C16.0025 9.31721 16.014 9.46471 16.014 9.62371ZM5.94737 9.57646C5.92097 11.3215 7.30719 12.7612 9.05201 12.8007C9.90556 12.8157 10.7296 12.4883 11.34 11.8915C11.9505 11.2947 12.2966 10.4784 12.301 9.62471C12.3011 7.87944 10.8933 6.46087 9.14813 6.44762C7.40291 6.43437 5.97377 7.8314 5.94737 9.57646Z" fill="#191C24"/>
</svg>
