<svg width="10" height="10" viewBox="0 0 10 10" fill="none" xmlns="http://www.w3.org/2000/svg">
<path fill-rule="evenodd" clip-rule="evenodd" d="M7.25 1.25H8.188C8.70565 1.25055 9.125 1.67035 9.125 2.188V3.126H0.375V2.188C0.375 1.66996 0.794957 1.25 1.313 1.25H2.251V0.313C2.251 0.140525 2.39053 0.000551039 2.563 0H3.188C3.27101 0 3.35063 0.0329767 3.40932 0.0916756C3.46802 0.150374 3.501 0.229987 3.501 0.313V1.25H6.001V0.313C6.001 0.140525 6.14053 0.000551039 6.313 0H6.938C7.11047 0.000551039 7.25 0.140525 7.25 0.313V1.25ZM1.313 10C0.795347 10 0.375552 9.58065 0.375 9.063V3.75H9.125V9.063C9.12445 9.58026 8.70526 9.99945 8.188 10H1.313ZM6.859 5C6.72999 5.00055 6.62555 5.10499 6.625 5.234V6.015C6.62555 6.14401 6.72999 6.24845 6.859 6.249H7.64C7.76901 6.24845 7.87345 6.14401 7.874 6.015V5.234C7.87345 5.10499 7.76901 5.00055 7.64 5H6.859ZM6.625 7.734C6.62555 7.60499 6.72999 7.50055 6.859 7.5H7.64C7.76901 7.50055 7.87345 7.60499 7.874 7.734V8.515C7.87345 8.64401 7.76901 8.74845 7.64 8.749H6.859C6.72999 8.74845 6.62555 8.64401 6.625 8.515V7.734ZM4.359 5C4.22999 5.00055 4.12555 5.10499 4.125 5.234V6.015C4.12555 6.14401 4.22999 6.24845 4.359 6.249H5.141C5.27001 6.24845 5.37445 6.14401 5.375 6.015V5.234C5.37445 5.1046 5.2694 5 5.14 5H4.359ZM4.125 7.734C4.12555 7.60499 4.22999 7.50055 4.359 7.5H5.14C5.2694 7.5 5.37445 7.6046 5.375 7.734V8.515C5.37445 8.64401 5.27001 8.74845 5.141 8.749H4.359C4.22999 8.74845 4.12555 8.64401 4.125 8.515V7.734ZM1.859 5C1.72999 5.00055 1.62555 5.10499 1.625 5.234V6.015C1.62555 6.14401 1.72999 6.24845 1.859 6.249H2.64C2.76901 6.24845 2.87345 6.14401 2.874 6.015V5.234C2.87345 5.10499 2.76901 5.00055 2.64 5H1.859ZM1.625 7.734C1.62555 7.60499 1.72999 7.50055 1.859 7.5H2.64C2.76901 7.50055 2.87345 7.60499 2.874 7.734V8.515C2.87345 8.64401 2.76901 8.74845 2.64 8.749H1.859C1.72999 8.74845 1.62555 8.64401 1.625 8.515V7.734Z" fill="#FF5C3A"/>
</svg>
