<svg width="26" height="23" viewBox="0 0 26 23" fill="none" xmlns="http://www.w3.org/2000/svg">
<g opacity="0.5">
<path fill-rule="evenodd" clip-rule="evenodd" d="M5.238 23H19.9C22.9305 22.85 25.2713 20.2813 25.14 17.25V5.75C25.2713 2.71865 22.9305 0.150023 19.9 0H5.238C2.20831 0.151083 -0.131309 2.71939 -4.94532e-06 5.75V17.25C-0.131309 20.2806 2.20831 22.8489 5.238 23ZM2.1 5.75C2.01905 3.93265 3.42113 2.39116 5.238 2.3H19.9C21.7188 2.38851 23.1239 3.9308 23.043 5.75V17.25C23.1239 19.0692 21.7188 20.6115 19.9 20.7H5.238C3.42113 20.6088 2.01905 19.0673 2.1 17.25V5.75Z" fill="#8A8D9F"/>
<path d="M19.903 12.5519H11.523C10.9431 12.5519 10.473 12.0818 10.473 11.5019C10.473 10.922 10.9431 10.4519 11.523 10.4519H19.903C20.4829 10.4519 20.953 10.922 20.953 11.5019C20.953 12.0818 20.4829 12.5519 19.903 12.5519Z" fill="#8A8D9F"/>
<path d="M7.333 12.5519H5.233C4.6531 12.5519 4.183 12.0818 4.183 11.5019C4.183 10.922 4.6531 10.4519 5.233 10.4519H7.333C7.9129 10.4519 8.383 10.922 8.383 11.5019C8.383 12.0818 7.9129 12.5519 7.333 12.5519Z" fill="#8A8D9F"/>
<path d="M13.618 18.359H5.238C4.6581 18.359 4.188 17.8889 4.188 17.309C4.188 16.7291 4.6581 16.259 5.238 16.259H13.618C14.1979 16.259 14.668 16.7291 14.668 17.309C14.668 17.8889 14.1979 18.359 13.618 18.359Z" fill="#8A8D9F"/>
<path d="M19.903 18.359H17.803C17.2231 18.359 16.753 17.8889 16.753 17.309C16.753 16.7291 17.2231 16.259 17.803 16.259H19.903C20.4829 16.259 20.953 16.7291 20.953 17.309C20.953 17.8889 20.4829 18.359 19.903 18.359Z" fill="#8A8D9F"/>
</g>
</svg>
