<svg width="36" height="19" viewBox="0 0 36 19" fill="none" xmlns="http://www.w3.org/2000/svg">
<path d="M4.11955 16.3433C4.18298 16.5222 4.25524 16.6872 4.33034 16.849C4.87781 18.042 5.70768 18.8204 6.64905 18.8204C7.58367 18.8204 8.40711 18.0539 8.95425 16.8768C9.03011 16.7147 9.10412 16.5528 9.1681 16.375C9.22652 16.215 9.27622 16.0452 9.32417 15.8732C9.5172 15.1819 9.63458 14.4154 9.63458 13.5937C9.63458 10.7088 8.29779 8.36841 6.64851 8.36841C4.99967 8.36841 3.66287 10.7088 3.66287 13.5937C3.66287 14.4016 3.776 15.1562 3.96282 15.8379C4.01034 16.0126 4.06167 16.1816 4.11955 16.3433Z" fill="#F5F5F5"/>
<path d="M26.469 17.2265C27.0119 18.2063 27.7687 18.8186 28.6102 18.8186C29.5307 18.8186 30.344 18.0739 30.8921 16.9284C30.9779 16.7485 31.0603 16.5677 31.1319 16.3691C31.1957 16.1923 31.2516 16.0077 31.3029 15.8181C31.4863 15.1404 31.5963 14.3917 31.5963 13.5937C31.5963 10.7078 30.2598 8.36768 28.6102 8.36768C26.9611 8.36863 25.6242 10.7088 25.6242 13.5937C25.6242 14.5508 25.7822 15.4368 26.0384 16.2091C26.0977 16.3849 26.1592 16.5547 26.2286 16.7168C26.3053 16.8936 26.382 17.0684 26.469 17.2265Z" fill="#F5F5F5"/>
<path d="M35.7858 2.38532L32.6551 4.07125C32.6551 4.07125 32.3136 4.50919 31.9248 4.99766C31.5958 4.78919 31.2328 4.55267 30.8215 4.27381C27.2659 1.86346 22.6933 0.179443 19.7009 0.179443C19.3257 0.179443 18.9752 0.207292 18.6614 0.260507C16.9912 0.542608 14.6927 1.99927 11.829 4.58605C11.711 4.69363 11.6332 4.76439 11.6039 4.78652C10.7767 5.40641 9.74401 5.70797 8.4458 5.70797C7.46181 5.70797 6.49592 5.53268 5.72043 5.39249C5.29144 5.31448 4.9153 5.24677 4.6159 5.22006C4.52108 5.21224 4.43672 5.20824 4.36227 5.20824C3.75388 5.20824 3.57524 5.47851 3.44172 6.00934C3.38385 6.23994 3.31845 6.50067 2.73599 6.78716C1.19015 7.54572 0.116677 9.6652 0.0724261 9.75408L0.000817815 9.89618V14.2183L0.156242 14.3583C0.357769 14.5431 0.431339 14.6755 0.451394 14.7081C0.207577 15.0861 -0.0974937 15.6542 0.0300279 16.2449C0.157876 16.8335 0.597553 16.8493 0.647472 16.8493H3.61502C3.55714 16.6864 3.50406 16.5176 3.45502 16.3437C3.40815 16.1798 3.36586 16.012 3.32782 15.8382C3.17294 15.1409 3.0851 14.3863 3.0851 13.594C3.0851 10.1562 4.68369 7.35747 6.64916 7.35747C8.61408 7.35747 10.2132 10.155 10.2132 13.594C10.2132 14.4039 10.1218 15.1754 9.96069 15.8855C9.922 16.0574 9.87796 16.2243 9.83055 16.3883C9.78085 16.5611 9.72668 16.728 9.66892 16.8911L25.3278 17.1972C25.3278 17.1972 25.4717 17.2041 25.7127 17.211C25.645 17.0471 25.5818 16.8751 25.5242 16.6992C25.4695 16.5333 25.4199 16.3624 25.3736 16.1875C25.1653 15.3974 25.0462 14.5204 25.0462 13.5938C25.0462 10.156 26.6451 7.35727 28.6102 7.35727C30.5754 7.35727 32.1742 10.1548 32.1742 13.5938C32.1742 14.2902 32.106 14.9578 31.9852 15.5832C31.9479 15.7806 31.9045 15.9714 31.8559 16.1581C31.8057 16.3526 31.7498 16.5413 31.6883 16.725C32.2657 16.5375 32.6574 16.2964 32.8554 16.004C33.8189 14.5769 34.9008 7.7502 35.0379 6.86517L35.0508 6.74673L34.663 6.62828L34.4921 6.53138C34.5277 6.36353 34.6016 6.29983 34.5682 6.29697C34.509 6.29697 34.4108 6.28362 34.2527 6.23326C34.6963 5.25096 35.4492 4.6179 35.7856 4.3236C36.2676 3.90245 35.7858 2.38532 35.7858 2.38532Z" fill="#F5F5F5"/>
</svg>
