<svg width="24" height="24" viewBox="0 0 24 24" fill="none" xmlns="http://www.w3.org/2000/svg">
<path fill-rule="evenodd" clip-rule="evenodd" d="M18.4 16H10.62C9.27501 15.9971 8.09541 15.1017 7.731 13.807L7.687 13.629L5.53 3.581C5.34921 2.71697 4.62006 2.07581 3.74 2.007L3.575 2H0V0H3.575C5.38553 0.00047303 6.96998 1.21701 7.438 2.966L7.486 3.166L7.879 5H20.753C20.8504 4.99981 20.9477 5.00683 21.044 5.021L21.187 5.047C22.2067 5.27769 22.879 6.25182 22.733 7.287L22.706 7.434L21.324 13.651C21.0295 14.9551 19.9112 15.9094 18.577 15.995L18.4 16ZM8 24C6.34315 24 5 22.6569 5 21C5 19.3431 6.34315 18 8 18C9.65685 18 11 19.3431 11 21C11 22.6569 9.65685 24 8 24ZM18 21C18 22.6569 19.3431 24 21 24C22.6569 24 24 22.6569 24 21C24 19.3431 22.6569 18 21 18C19.3431 18 18 19.3431 18 21ZM20 21C20 20.4477 20.4477 20 21 20C21.5523 20 22 20.4477 22 21C22 21.5523 21.5523 22 21 22C20.4477 22 20 21.5523 20 21ZM7 21C7 20.4477 7.44772 20 8 20C8.55229 20 9 20.4477 9 21C9 21.5523 8.55229 22 8 22C7.44772 22 7 21.5523 7 21ZM9.639 13.209L8.308 7H20.753L19.375 13.216L19.344 13.328C19.2044 13.7301 18.8256 13.9997 18.4 14H10.616L10.5 13.993C10.0747 13.943 9.72855 13.6277 9.639 13.209Z" fill="white"/>
</svg>
