<svg width="25" height="25" viewBox="0 0 25 25" fill="none" xmlns="http://www.w3.org/2000/svg">
<path fill-rule="evenodd" clip-rule="evenodd" d="M4.84568 12.5107C4.66305 12.5107 4.4897 12.5918 4.37187 12.7323C4.25403 12.8728 4.20368 13.0585 4.23424 13.2398L5.42173 20.4165C5.62111 21.6208 6.65586 22.5034 7.8683 22.5034H16.8267C18.0392 22.5034 19.0739 21.6208 19.2733 20.4165L20.4608 13.2398C20.4913 13.0585 20.441 12.8728 20.3231 12.7323C20.2053 12.5918 20.032 12.5107 19.8493 12.5107H4.84568ZM2.64933 10.0132C2.2846 10.013 1.93826 10.1744 1.70238 10.4545C1.46651 10.7346 1.365 11.1051 1.42484 11.4673L2.97516 20.8249C3.37323 23.234 5.44291 25.0001 7.86831 25.0002H16.8267C19.2516 25.0002 21.3211 23.235 21.7199 20.8265L23.2686 11.469C23.3289 11.1066 23.2278 10.7358 22.992 10.4553C22.7563 10.1749 22.4098 10.0131 22.0449 10.0132H2.64933Z" fill="#C4C6CF"/>
<path fill-rule="evenodd" clip-rule="evenodd" d="M10.7461 2.15472C11.2095 1.66358 11.1996 0.89006 10.7239 0.411046C10.2482 -0.0679685 9.47998 -0.0778893 8.99222 0.388682L4.02989 5.38382C3.56654 5.87496 3.57639 6.64848 4.0521 7.1275C4.52782 7.60651 5.29601 7.61643 5.78376 7.14986L10.7461 2.15472ZM13.953 2.1549C13.6261 1.84225 13.4934 1.37569 13.6064 0.936236C13.7193 0.496782 14.0601 0.15361 14.4966 0.0398771C14.933 -0.0738563 15.3963 0.0597506 15.7068 0.388856L20.6659 5.384C21.1293 5.87514 21.1195 6.64866 20.6437 7.12767C20.168 7.60669 19.3998 7.61661 18.9121 7.15003L13.953 2.1549Z" fill="#C4C6CF"/>
<path fill-rule="evenodd" clip-rule="evenodd" d="M21.0288 7.51536H3.66626C3.21565 7.5038 2.79428 7.73926 2.5656 8.13039C2.33692 8.52152 2.33692 9.00677 2.5656 9.3979C2.79428 9.78903 3.21565 10.0245 3.66626 10.0129H21.0288C21.4794 10.0245 21.9008 9.78903 22.1294 9.3979C22.3581 9.00677 22.3581 8.52152 22.1294 8.13039C21.9008 7.73926 21.4794 7.5038 21.0288 7.51536ZM3.66623 5.01807C1.63277 5.04818 0 6.71663 0 8.76442C0 10.8122 1.63277 12.4807 3.66623 12.5108H21.0288C23.0622 12.4807 24.695 10.8122 24.695 8.76442C24.695 6.71663 23.0622 5.04818 21.0288 5.01807H3.66623Z" fill="#C4C6CF"/>
<path d="M12.3479 14.5886V20.1978" stroke="#C4C6CF" stroke-width="2" stroke-linecap="round"/>
<path d="M9.56183 17.3928H15.1324" stroke="#C4C6CF" stroke-width="2" stroke-linecap="round"/>
</svg>
