<svg width="24" height="24" viewBox="0 0 24 24" fill="none" xmlns="http://www.w3.org/2000/svg">
<path opacity="0.5" fill-rule="evenodd" clip-rule="evenodd" d="M23.121 9.04787L15.536 1.46187C13.5814 -0.486965 10.4185 -0.486965 8.46398 1.46187L0.878982 9.04787C0.314269 9.60897 -0.00228572 10.3728 -1.84215e-05 11.1689V20.9859C-1.84215e-05 22.6427 1.34313 23.9859 2.99998 23.9859H21C22.6568 23.9859 24 22.6427 24 20.9859V11.1689C24.0022 10.3728 23.6857 9.60897 23.121 9.04787ZM8.99998 21.9859V18.0519C8.99998 16.395 10.3431 15.0519 12 15.0519C13.6568 15.0519 15 16.395 15 18.0519V21.9859H8.99998ZM21 21.9859C21.5523 21.9859 22 21.5382 22 20.9859V11.1649C21.9972 10.9023 21.8921 10.6511 21.707 10.4649L14.122 2.87887C12.9484 1.71079 11.0515 1.71079 9.87798 2.87887L2.29298 10.4619C2.10617 10.6499 2.00091 10.9038 1.99998 11.1689V20.9859C1.99998 21.5382 2.4477 21.9859 2.99998 21.9859H6.99998V18.0519C6.99998 15.2904 9.23856 13.0519 12 13.0519C14.7614 13.0519 17 15.2904 17 18.0519V21.9859H21Z" fill="#8A8D9F"/>
</svg>
