<svg width="18" height="18" viewBox="0 0 18 18" fill="none" xmlns="http://www.w3.org/2000/svg">
<path fill-rule="evenodd" clip-rule="evenodd" d="M8.977 7.10212H15.532L15.53 7.09912C16.5656 7.10022 17.4049 7.93949 17.406 8.97512V15.5301C17.4049 16.5658 16.5656 17.405 15.53 17.4061H8.975C8.04621 17.4046 7.25791 16.7246 7.12 15.8061L5.401 14.5781C5.26698 14.4824 5.18744 14.3278 5.18744 14.1631C5.18744 13.9984 5.26698 13.8439 5.401 13.7481L7.101 12.5351V8.97812C7.1021 7.94249 7.94137 7.10322 8.977 7.10212ZM13.092 14.1261C13.119 14.2301 13.212 14.2681 13.332 14.2681C13.523 14.2681 13.78 14.1421 13.78 13.9731C13.7785 13.9544 13.7748 13.936 13.769 13.9181L12.715 10.4821C12.666 10.3181 12.464 10.2411 12.256 10.2411C12.0692 10.2172 11.8876 10.3138 11.803 10.4821L10.749 13.9181C10.7437 13.9361 10.74 13.9545 10.738 13.9731C10.738 14.1481 10.995 14.2681 11.186 14.2681C11.306 14.2681 11.399 14.2261 11.426 14.1261L11.633 13.3991H12.884L13.092 14.1261Z" fill="#191C24"/>
<path d="M11.776 12.842H12.727L12.252 11.165L11.776 12.842Z" fill="#191C24"/>
<path d="M6.081 8.977C6.08061 8.31802 6.30615 7.67882 6.72 7.166C6.15971 7.16664 5.61274 6.99525 5.153 6.675C4.69326 6.99525 4.14629 7.16664 3.586 7.166C3.4338 7.15702 3.31496 7.03097 3.31496 6.8785C3.31496 6.72603 3.4338 6.59998 3.586 6.591C3.97838 6.59118 4.36344 6.48472 4.7 6.283C4.29538 5.84712 4.04339 5.29155 3.982 4.7H3.582C3.47524 4.7063 3.37378 4.65292 3.3185 4.56137C3.26322 4.46982 3.26322 4.35518 3.3185 4.26363C3.37378 4.17208 3.47524 4.1187 3.582 4.125H4.865V3.425C4.8587 3.31824 4.91208 3.21678 5.00363 3.1615C5.09518 3.10622 5.20982 3.10622 5.30137 3.1615C5.39292 3.21678 5.4463 3.31824 5.44 3.425V4.125H6.72C6.82676 4.1187 6.92822 4.17208 6.9835 4.26363C7.03878 4.35518 7.03878 4.46982 6.9835 4.56137C6.92822 4.65292 6.82676 4.7063 6.72 4.7H6.32C6.25805 5.29179 6.00534 5.84739 5.6 6.283C5.93679 6.48503 6.32226 6.59151 6.715 6.591C6.86601 6.59063 6.99148 6.70735 7.002 6.858C7.53663 6.35832 8.24122 6.08056 8.973 6.081H10.302V4.869L12 3.656C12.134 3.56027 12.2136 3.4057 12.2136 3.241C12.2136 3.0763 12.134 2.92173 12 2.826L10.286 1.6C10.148 0.681127 9.35917 0.00107373 8.43 0H1.875C0.840151 0.0016518 0.0016518 0.840151 0 1.875V8.431C0.00110232 9.46663 0.840371 10.3059 1.876 10.307H6.081V8.977Z" fill="#191C24"/>
<path d="M5.15301 5.92415C5.47556 5.59046 5.68269 5.16218 5.74401 4.70215H4.56201C4.62347 5.16214 4.83058 5.59037 5.15301 5.92415Z" fill="#191C24"/>
</svg>
