<svg width="12" height="13" viewBox="0 0 12 13" fill="none" xmlns="http://www.w3.org/2000/svg">
<path d="M4.66907 9.59993C4.48571 9.59993 4.33707 9.45129 4.33707 9.26793C4.3274 9.09192 4.18185 8.95415 4.00557 8.95415C3.82929 8.95415 3.68374 9.09192 3.67407 9.26793C3.67573 9.6904 3.94271 10.0663 4.34107 10.2069V10.4969C4.35074 10.673 4.49629 10.8107 4.67257 10.8107C4.84885 10.8107 4.9944 10.673 5.00407 10.4969V10.2039C5.44821 10.0317 5.7092 9.57009 5.62782 9.10074C5.54643 8.63138 5.14527 8.28458 4.66907 8.27193C4.48571 8.27193 4.33707 8.12329 4.33707 7.93993C4.33707 7.75658 4.48571 7.60793 4.66907 7.60793C4.85243 7.60793 5.00107 7.75658 5.00107 7.93993C5.01074 8.11595 5.15629 8.25372 5.33257 8.25372C5.50885 8.25372 5.6544 8.11595 5.66407 7.93993C5.66263 7.52 5.39899 7.14571 5.00407 7.00293V6.51593C4.9944 6.33992 4.84885 6.20215 4.67257 6.20215C4.49629 6.20215 4.35074 6.33992 4.34107 6.51593V7.00093C3.89525 7.1709 3.6316 7.63214 3.71138 8.10254C3.79116 8.57294 4.19214 8.92147 4.66907 8.93493C4.84509 8.94461 4.98286 9.09015 4.98286 9.26643C4.98286 9.44272 4.84509 9.58826 4.66907 9.59793V9.59993Z" fill="#5449F8"/>
<path fill-rule="evenodd" clip-rule="evenodd" d="M4.67302 12.1571C3.64981 12.2203 2.62655 12.0343 1.69102 11.6151C0.795924 11.1403 0.265647 10.1817 0.339019 9.1711C0.360859 7.54415 1.21704 6.04254 2.60602 5.1951C2.39658 4.96147 2.30974 4.64267 2.37177 4.3351C2.4338 4.02752 2.6374 3.76729 2.92102 3.6331L2.36802 1.9331C2.33506 1.8321 2.35242 1.72143 2.41474 1.63538C2.47705 1.54933 2.57678 1.4983 2.68302 1.4981H3.73902C3.88563 1.10825 4.25852 0.850098 4.67502 0.850098C5.09152 0.850098 5.46441 1.10825 5.61102 1.4981H6.66302C6.76616 1.50049 6.86234 1.55069 6.92326 1.63395C6.98419 1.71721 7.00295 1.82406 6.97402 1.9231L6.42102 3.6231C6.70479 3.7571 6.90862 4.01724 6.97085 4.32483C7.03308 4.63242 6.94639 4.95133 6.73702 5.1851C7.17501 5.45101 7.56484 5.78911 7.89002 6.1851H7.99002H10.666C11.059 6.18422 11.4156 6.41493 11.5758 6.77372C11.7361 7.13251 11.6699 7.55203 11.407 7.8441C11.746 8.2215 11.746 8.79369 11.407 9.1711C11.746 9.5485 11.746 10.1207 11.407 10.4981C11.6699 10.7902 11.7361 11.2097 11.5758 11.5685C11.4156 11.9273 11.059 12.158 10.666 12.1571H7.99002C7.69685 12.1571 7.41867 12.0275 7.23002 11.8031C6.40536 12.0715 5.53959 12.1914 4.67302 12.1571ZM10.666 8.8401C10.8494 8.8401 10.998 8.69146 10.998 8.5081H10.997C10.9965 8.32552 10.8486 8.17765 10.666 8.1771H7.99002C7.86724 8.17035 7.75079 8.23202 7.68737 8.33737C7.62395 8.44271 7.62395 8.57448 7.68737 8.67983C7.75079 8.78518 7.86724 8.84684 7.99002 8.8401H10.666ZM10.998 9.8351C10.998 10.0185 10.8494 10.1671 10.666 10.1671H7.99002C7.86724 10.1738 7.75079 10.1122 7.68737 10.0068C7.62395 9.90148 7.62395 9.76971 7.68737 9.66437C7.75079 9.55902 7.86724 9.49735 7.99002 9.5041H10.666C10.8482 9.50464 10.9959 9.65191 10.997 9.8341L10.998 9.8351ZM7.99002 11.4941H10.666C10.842 11.4844 10.9798 11.3389 10.9798 11.1626C10.9798 10.9863 10.842 10.8408 10.666 10.8311H7.99002C7.86724 10.8244 7.75079 10.886 7.68737 10.9914C7.62395 11.0967 7.62395 11.2285 7.68737 11.3338C7.75079 11.4392 7.86724 11.5008 7.99002 11.4941ZM10.998 7.1821C10.998 7.36546 10.8494 7.5141 10.666 7.5141H7.99002C7.86724 7.52084 7.75079 7.45918 7.68737 7.35383C7.62395 7.24848 7.62395 7.11671 7.68737 7.01136C7.75079 6.90602 7.86724 6.84435 7.99002 6.8511H10.666C10.8482 6.85164 10.9959 6.99891 10.997 7.1811L10.998 7.1821ZM3.34602 4.8591H5.99002H5.99102H6.00102C6.17703 4.84943 6.31481 4.70388 6.31481 4.5276C6.31481 4.35132 6.17703 4.20577 6.00102 4.1961H3.34602C3.17 4.20577 3.03223 4.35132 3.03223 4.5276C3.03223 4.70388 3.17 4.84943 3.34602 4.8591ZM4.00902 2.1591C4.1889 2.15805 4.33523 2.01394 4.33902 1.8341C4.33227 1.71132 4.39394 1.59487 4.49929 1.53145C4.60463 1.46803 4.7364 1.46803 4.84175 1.53145C4.9471 1.59487 5.00876 1.71132 5.00202 1.8341V2.4971C4.99527 2.61988 5.05694 2.73633 5.16229 2.79975C5.26763 2.86317 5.3994 2.86317 5.50475 2.79975C5.6101 2.73633 5.67176 2.61988 5.66502 2.4971V2.1611H6.20302L5.75902 3.5341H3.58702L3.13902 2.1611L4.00902 2.1591ZM5.93402 5.5201H3.40902L3.41102 5.5221C1.95923 6.1594 1.01683 7.58963 1.00402 9.1751C0.928851 9.94035 1.32406 10.675 2.00402 11.0341C2.8445 11.3972 3.75957 11.5542 4.67302 11.4921C5.45928 11.5256 6.24529 11.4203 6.99502 11.1811V11.1611C6.9949 10.9163 7.08537 10.6801 7.24902 10.4981C6.91008 10.1207 6.91008 9.5485 7.24902 9.1711C6.91008 8.79369 6.91008 8.2215 7.24902 7.8441C6.89924 7.45524 6.91105 6.86173 7.27602 6.4871C6.90626 6.06887 6.44777 5.7385 5.93402 5.5201Z" fill="#5449F8"/>
</svg>
