<svg width="14" height="14" viewBox="0 0 14 14" fill="none" xmlns="http://www.w3.org/2000/svg">
<path fill-rule="evenodd" clip-rule="evenodd" d="M12.353 5.14381L13.613 3.88381C13.8599 3.63783 13.9986 3.30361 13.9984 2.9551C13.9982 2.6066 13.8591 2.27253 13.612 2.02681L11.969 0.383811C11.4558 -0.127937 10.6252 -0.127937 10.112 0.383811L8.852 1.64381C8.79014 1.70537 8.75536 1.78904 8.75536 1.87631C8.75536 1.96358 8.79014 2.04725 8.852 2.10881L11.888 5.14381C11.9496 5.20567 12.0332 5.24045 12.1205 5.24045C12.2078 5.24045 12.2914 5.20567 12.353 5.14381ZM0.589999 9.90681L7.77 2.72681H7.769C7.89848 2.59817 8.10752 2.59817 8.237 2.72681L11.272 5.76181C11.3339 5.82337 11.3686 5.90704 11.3686 5.99431C11.3686 6.08158 11.3339 6.16525 11.272 6.22681L4.092 13.4068L0.769999 13.9888C0.559297 14.0255 0.343916 13.9574 0.192684 13.8061C0.0414513 13.6549 -0.0267033 13.4395 0.00999933 13.2288L0.589999 9.90681ZM3.392 9.29481C3.31988 9.22327 3.27931 9.1259 3.27931 9.02431C3.27931 8.92273 3.31988 8.82535 3.392 8.75381L7.598 4.53981C7.74931 4.40258 7.98168 4.40825 8.12612 4.55269C8.27056 4.69713 8.27623 4.9295 8.139 5.08081L3.934 9.29481C3.86246 9.36693 3.76508 9.4075 3.6635 9.4075C3.56192 9.4075 3.46454 9.36693 3.393 9.29481H3.392ZM3.718 11.5948H2.405L2.406 10.2808H1.413L1.104 12.0448L1.954 12.8948L3.718 12.5878V11.5948Z" fill="#B4C2CD"/>
</svg>
