<svg width="17" height="17" viewBox="0 0 17 17" fill="none" xmlns="http://www.w3.org/2000/svg">
<path d="M12.4 10.914C12.1829 10.6633 11.8676 10.5193 11.536 10.5193C11.2044 10.5193 10.8891 10.6633 10.672 10.914C10.272 11.314 9.86401 11.714 9.47201 12.122C9.43618 12.1745 9.38081 12.2106 9.31825 12.222C9.25569 12.2335 9.19114 12.2194 9.13901 12.183C8.87801 12.04 8.59901 11.925 8.34801 11.769C7.19743 11.0241 6.17687 10.0954 5.32701 9.01999C4.88488 8.4968 4.52016 7.91285 4.24401 7.28599C4.18221 7.17928 4.2082 7.04337 4.30501 6.96699C4.70501 6.57699 5.10501 6.17599 5.50001 5.77599C5.76357 5.55809 5.91615 5.23396 5.91615 4.89199C5.91615 4.55002 5.76357 4.22589 5.50001 4.00799C5.18401 3.68899 4.86901 3.37699 4.55301 3.05799C4.23701 2.73899 3.90501 2.40299 3.57601 2.08099C3.35767 1.83243 3.04285 1.68994 2.71201 1.68994C2.38117 1.68994 2.06635 1.83243 1.84801 2.08099C1.44101 2.48099 1.04801 2.89199 0.636012 3.28099C0.266961 3.62734 0.0456173 4.10262 0.0180117 4.60799C-0.0176392 5.4368 0.130571 6.26323 0.452012 7.02799C1.06356 8.61758 1.9467 10.0888 3.06201 11.376C4.52824 13.1343 6.35155 14.5609 8.41101 15.561C9.33077 16.0444 10.3385 16.3376 11.374 16.423C12.0732 16.5026 12.7676 16.2383 13.237 15.714C13.583 15.327 13.973 14.974 14.337 14.604C14.5953 14.3856 14.7449 14.0649 14.7463 13.7266C14.7476 13.3883 14.6006 13.0665 14.344 12.846C13.6973 12.202 13.0493 11.558 12.4 10.914Z" fill="#191C24"/>
<path d="M11.752 8.20881L13.004 7.99481C12.5891 5.58778 10.6676 3.724 8.249 3.38281L8.073 4.64181C9.94457 4.90419 11.4319 6.34624 11.752 8.20881Z" fill="#191C24"/>
<path d="M13.71 2.766C12.2827 1.32888 10.4225 0.400902 8.41599 0.125L8.23999 1.384C11.7072 1.87127 14.463 4.54179 15.059 7.992L16.311 7.778C15.9844 5.87814 15.0755 4.12672 13.71 2.766Z" fill="#191C24"/>
</svg>
