<svg width="24" height="23" viewBox="0 0 24 23" fill="none" xmlns="http://www.w3.org/2000/svg">
<path fill-rule="evenodd" clip-rule="evenodd" d="M10.416 20C11.2115 21.8226 13.0114 23.0006 15 23C16.9886 23.0006 18.7885 21.8226 19.584 20H21H21.177C22.7647 19.9067 24.0037 18.5905 24.001 17V10.688L23.993 10.466C23.9492 9.8763 23.7321 9.3127 23.369 8.846L17.991 1.932L17.829 1.732C16.879 0.631983 15.4974 -0.000232097 14.044 6.39179e-08H3V2H14.044L14.242 2.006C15.0966 2.06263 15.8863 2.48184 16.412 3.158L21.789 10.076L21.864 10.187C21.9525 10.3388 21.9994 10.5113 22 10.687V17L21.994 17.116C21.9351 17.6203 21.5077 18.0004 21 18H20V17.783C19.9401 15.0216 17.6529 12.8316 14.8915 12.8915C12.1301 12.9514 9.94008 15.2386 10 18H7V20H10.416ZM12 18C12 16.3431 13.3431 15 15 15C16.6569 15 18 16.3431 18 18C18 19.6569 16.6569 21 15 21C13.3431 21 12 19.6569 12 18ZM9 12V14H3V12H9ZM0 6V8H6V6H0Z" fill="white"/>
</svg>
