<svg width="19" height="24" viewBox="0 0 19 24" fill="none" xmlns="http://www.w3.org/2000/svg">
<g opacity="0.5">
<path fill-rule="evenodd" clip-rule="evenodd" d="M15.572 5.99991C15.4912 9.39179 12.678 12.077 9.286 11.9999C5.89533 12.0737 3.08407 9.39035 3 5.99991C3.0808 2.60803 5.89403 -0.0772077 9.286 -8.86007e-05C12.678 -0.0772077 15.4912 2.60803 15.572 5.99991ZM9.288 1.99987C11.5479 1.95067 13.4214 3.73991 13.476 5.99991C13.4214 8.26058 11.5468 10.0502 9.286 9.99991C7.02678 10.048 5.1546 8.25898 5.1 5.99991C5.15458 3.73991 7.02813 1.95067 9.288 1.99987Z" fill="#8A8D9F"/>
<path d="M9.286 14C4.23907 13.9276 0.0854793 17.9533 0 23C0.0173506 23.5572 0.474048 23.9999 1.0315 23.9999C1.58895 23.9999 2.04565 23.5572 2.063 23C2.12547 19.0732 5.35817 15.9399 9.285 16C13.2118 15.9399 16.4445 19.0732 16.507 23C16.5244 23.5572 16.981 23.9999 17.5385 23.9999C18.096 23.9999 18.5526 23.5572 18.57 23C18.4845 17.9541 14.3322 13.9287 9.286 14Z" fill="#8A8D9F"/>
</g>
</svg>
